<svg width="370" height="98" viewBox="0 0 370 98" fill="none" xmlns="http://www.w3.org/2000/svg">
<path d="M4.896 33.912C4.896 33.912 4.78933 33.8693 4.576 33.784C4.36267 33.72 4.128 33.656 3.872 33.592C3.63733 33.528 3.456 33.496 3.328 33.496C2.98667 33.4107 2.74133 33.2187 2.592 32.92C2.44267 32.6427 2.41067 32.3333 2.496 31.992C2.58133 31.9067 2.64533 31.7253 2.688 31.448C2.73067 31.1707 2.752 30.9467 2.752 30.776C2.83733 30.6053 2.89067 30.488 2.912 30.424C2.93333 30.3387 2.98667 30.1253 3.072 29.784C3.136 29.4213 3.24267 28.92 3.392 28.28C3.56267 27.6187 3.744 26.9147 3.936 26.168C4.14933 25.4213 4.352 24.7067 4.544 24.024C4.736 23.3413 4.90667 22.7653 5.056 22.296C5.22667 21.8267 5.344 21.56 5.408 21.496C5.408 21.496 5.408 21.464 5.408 21.4C5.408 21.3147 5.408 21.2293 5.408 21.144C5.408 21.144 5.41867 21.048 5.44 20.856C5.48267 20.6427 5.58933 20.408 5.76 20.152C5.84533 19.9173 5.92 19.6613 5.984 19.384C6.048 19.1067 6.08 18.9253 6.08 18.84C6.16533 18.7333 6.28267 18.4773 6.432 18.072C6.60267 17.6453 6.76267 17.2293 6.912 16.824C7.04 16.4827 7.17867 16.12 7.328 15.736C7.49867 15.352 7.63733 15.0213 7.744 14.744C7.872 14.4667 7.936 14.328 7.936 14.328C7.936 14.2427 7.936 14.2 7.936 14.2C7.936 14.1787 7.936 14.168 7.936 14.168C8.02133 14.0827 8.224 13.656 8.544 12.888C8.88533 12.0987 9.344 11.0853 9.92 9.848C10.0053 9.67733 10.1333 9.41067 10.304 9.048C10.4747 8.664 10.56 8.42933 10.56 8.344C10.88 8.024 11.1893 7.91733 11.488 8.024C11.808 8.10933 12.0853 8.29067 12.32 8.568C12.576 8.84533 12.7573 9.10133 12.864 9.336L13.184 9.848L12 12.152C11.6587 12.7493 11.36 13.2933 11.104 13.784C10.8693 14.2747 10.752 14.5627 10.752 14.648C10.752 14.648 10.6987 14.776 10.592 15.032C10.5067 15.288 10.4 15.6187 10.272 16.024C10.144 16.408 10.016 16.792 9.888 17.176C9.65333 17.8373 9.42933 18.392 9.216 18.84C9.00267 19.2667 8.896 19.5227 8.896 19.608C8.896 19.5653 9.10933 19.5333 9.536 19.512C9.984 19.4907 10.5387 19.48 11.2 19.48C11.8613 19.48 12.5333 19.48 13.216 19.48C13.92 19.4587 14.5493 19.448 15.104 19.448C15.6587 19.4267 16.0427 19.3947 16.256 19.352L17.92 19.192L18.816 16.344C18.9867 15.7467 19.2107 15.0213 19.488 14.168C19.7653 13.3147 20.0107 12.5893 20.224 11.992C20.5653 11.0107 20.928 10.328 21.312 9.944C21.696 9.53867 22.016 9.336 22.272 9.336C22.336 9.336 22.4533 9.4 22.624 9.528C22.816 9.63467 23.008 9.76267 23.2 9.912C23.392 10.0613 23.5093 10.2 23.552 10.328C23.808 10.5627 23.9253 10.8293 23.904 11.128C23.904 11.4267 23.7333 11.8213 23.392 12.312C23.0507 12.888 22.7627 13.5173 22.528 14.2C22.3147 14.8613 22.1227 15.4053 21.952 15.832C21.952 16.088 21.92 16.3013 21.856 16.472C21.792 16.6213 21.7173 16.7387 21.632 16.824C21.5893 16.8667 21.504 17.0267 21.376 17.304C21.248 17.5813 21.1307 17.8587 21.024 18.136C20.9173 18.4133 20.864 18.584 20.864 18.648C20.864 18.7973 20.832 18.9787 20.768 19.192C20.704 19.4053 20.6293 19.5547 20.544 19.64C20.5013 19.768 20.4053 20.088 20.256 20.6C20.1067 21.112 19.936 21.72 19.744 22.424C19.552 23.1067 19.3493 23.7787 19.136 24.44C18.9227 25.08 18.7307 25.6133 18.56 26.04C18.56 26.1893 18.5067 26.3813 18.4 26.616C18.2933 26.8293 18.24 27.0213 18.24 27.192C18.1547 27.448 18.048 27.768 17.92 28.152C17.792 28.536 17.728 28.7813 17.728 28.888C17.6213 29.3787 17.504 29.944 17.376 30.584C17.2693 31.224 17.1733 31.7893 17.088 32.28C17.024 32.7707 16.992 33.048 16.992 33.112C16.4373 33.176 16.0213 33.1013 15.744 32.888C15.4667 32.6747 15.2107 32.5253 14.976 32.44C14.5707 32.2053 14.3253 31.9067 14.24 31.544C14.176 31.2027 14.2613 30.7867 14.496 30.296C14.6027 30.1253 14.7307 29.7093 14.88 29.048C15.0507 28.3653 15.2213 27.6933 15.392 27.032C15.52 26.712 15.6587 26.3067 15.808 25.816C15.9573 25.3253 16.096 24.8453 16.224 24.376C16.3733 23.8853 16.5013 23.4693 16.608 23.128C16.7147 22.7867 16.7893 22.5947 16.832 22.552C16.832 22.4667 16.832 22.392 16.832 22.328C16.832 22.264 16.832 22.232 16.832 22.232C16.7893 22.1893 16.576 22.1573 16.192 22.136C15.808 22.0933 15.3173 22.0827 14.72 22.104C14.144 22.104 13.5147 22.1253 12.832 22.168C12.1493 22.1893 11.4987 22.2427 10.88 22.328C10.6453 22.328 10.304 22.328 9.856 22.328C9.42933 22.328 9.13067 22.328 8.96 22.328C8.72533 22.328 8.52267 22.328 8.352 22.328C8.20267 22.328 8.128 22.328 8.128 22.328C8.08533 22.392 8 22.6053 7.872 22.968C7.76533 23.3307 7.62667 23.768 7.456 24.28C7.30667 24.792 7.14667 25.3147 6.976 25.848C6.82667 26.3813 6.688 26.872 6.56 27.32C6.45333 27.7467 6.37867 28.056 6.336 28.248C6.25067 28.632 6.13333 29.112 5.984 29.688C5.856 30.264 5.70667 30.8507 5.536 31.448C5.38667 32.0667 5.248 32.6 5.12 33.048C5.01333 33.496 4.93867 33.784 4.896 33.912ZM27.751 30.36C27.111 30.7227 26.4283 30.936 25.703 31C24.999 31.0427 24.3377 30.9467 23.719 30.712C23.1003 30.456 22.599 30.0827 22.215 29.592C22.0017 29.3147 21.799 28.8773 21.607 28.28C21.415 27.6613 21.383 26.8293 21.511 25.784C21.639 24.8027 21.9377 23.8107 22.407 22.808C22.8977 21.8053 23.495 20.92 24.199 20.152C24.903 19.384 25.671 18.8613 26.503 18.584C26.8017 18.4773 27.1003 18.4027 27.399 18.36C27.719 18.296 28.135 18.2853 28.647 18.328C29.1377 18.392 29.575 18.52 29.959 18.712C30.343 18.8827 30.6203 19.0747 30.791 19.288C31.1323 19.6293 31.3563 19.96 31.463 20.28C31.5697 20.6 31.6123 20.9093 31.591 21.208C31.4843 21.8907 31.175 22.6267 30.663 23.416C30.1723 24.2053 29.479 24.792 28.583 25.176C28.2203 25.3253 27.7937 25.4213 27.303 25.464C26.8123 25.5067 26.1403 25.4427 25.287 25.272C24.775 25.1653 24.4337 25.2187 24.263 25.432C24.1137 25.6453 24.0497 26.0613 24.071 26.68C24.1137 27.064 24.199 27.4053 24.327 27.704C24.4763 27.9813 24.743 28.1733 25.127 28.28C25.6177 28.3653 25.9697 28.376 26.183 28.312C26.3963 28.2267 26.663 28.1093 26.983 27.96C27.1537 27.8533 27.3137 27.736 27.463 27.608C27.6337 27.48 27.7937 27.352 27.943 27.224C28.1137 27.096 28.2523 27 28.359 26.936C28.4657 26.8507 28.5723 26.7973 28.679 26.776C28.7857 26.7547 28.8923 26.744 28.999 26.744C29.2337 26.7653 29.4577 26.8933 29.671 27.128C29.8843 27.3627 30.023 27.5867 30.087 27.8C30.087 27.9707 29.9803 28.216 29.767 28.536C29.5537 28.8347 29.2657 29.1547 28.903 29.496C28.5617 29.816 28.1777 30.104 27.751 30.36ZM27.335 23.224C27.4843 23.16 27.6977 23.0107 27.975 22.776C28.2737 22.5413 28.5403 22.296 28.775 22.04C29.0097 21.7627 29.127 21.5493 29.127 21.4C29.127 21.1653 28.967 20.9627 28.647 20.792C28.3483 20.6213 27.9537 20.5893 27.463 20.696C27.2923 20.7387 27.0897 20.856 26.855 21.048C26.6203 21.24 26.3857 21.464 26.151 21.72C25.9163 21.9547 25.7137 22.1893 25.543 22.424C25.3723 22.6373 25.255 22.808 25.191 22.936C25.2763 23.0427 25.447 23.128 25.703 23.192C25.959 23.256 26.2363 23.288 26.535 23.288C26.855 23.288 27.1217 23.2667 27.335 23.224ZM31.8145 37.656C31.0465 37.8053 30.3105 37.8267 29.6065 37.72C28.9025 37.6347 28.3158 37.4533 27.8465 37.176C27.3558 36.8987 27.0572 36.5893 26.9505 36.248C26.8225 35.7573 26.8865 35.3947 27.1425 35.16C27.3985 34.9253 27.7078 34.7867 28.0705 34.744C28.4118 34.7013 28.6358 34.744 28.7425 34.872C28.9132 34.9787 29.1798 35.1387 29.5425 35.352C29.9265 35.5653 30.3958 35.6187 30.9505 35.512C31.4412 35.4053 31.8785 35.1707 32.2625 34.808C32.6465 34.4453 32.9878 34.0613 33.2865 33.656C33.4572 33.4 33.7452 32.9413 34.1505 32.28C34.5558 31.6187 34.9718 30.8933 35.3985 30.104C35.8465 29.2933 36.2198 28.5467 36.5185 27.864C36.5825 27.6933 36.6572 27.4907 36.7425 27.256C36.8278 27.0213 36.9345 26.8293 37.0625 26.68C37.1905 26.424 37.2972 26.1893 37.3825 25.976C37.4892 25.7413 37.5532 25.5813 37.5745 25.496C37.5958 25.3893 37.6918 25.176 37.8625 24.856C38.0332 24.536 38.1932 24.216 38.3425 23.896C38.4492 23.576 38.6092 23.1067 38.8225 22.488C39.0358 21.8693 39.2492 21.368 39.4625 20.984C39.7185 20.4933 39.9212 20.0987 40.0705 19.8C40.2412 19.48 40.4225 19.288 40.6145 19.224C40.8065 19.0747 40.9878 19 41.1585 19C41.3292 19 41.5318 19.064 41.7665 19.192C42.0225 19.448 42.2252 19.704 42.3745 19.96C42.5452 20.1947 42.6092 20.4933 42.5665 20.856C42.5452 21.1973 42.3745 21.6667 42.0545 22.264C41.8838 22.776 41.6918 23.2453 41.4785 23.672C41.2865 24.0773 41.1372 24.344 41.0305 24.472C40.9238 24.728 40.7958 25.016 40.6465 25.336C40.5185 25.6347 40.4012 25.912 40.2945 26.168C39.9105 27.0213 39.5798 27.7147 39.3025 28.248C39.0252 28.7813 38.7798 29.272 38.5665 29.72C38.3532 30.168 38.1292 30.6907 37.8945 31.288C37.4038 32.0773 36.9238 32.824 36.4545 33.528C36.0065 34.2533 35.5265 34.9253 35.0145 35.544C34.8012 35.736 34.4918 35.9813 34.0865 36.28C33.7025 36.6 33.2972 36.888 32.8705 37.144C32.4652 37.4213 32.1132 37.592 31.8145 37.656ZM35.8145 30.424C35.4945 30.3813 35.1425 30.168 34.7585 29.784C34.3958 29.4 34.0865 28.9947 33.8305 28.568C33.5958 28.1413 33.4998 27.8427 33.5425 27.672C33.5425 27.5653 33.5425 27.48 33.5425 27.416C33.5425 27.352 33.5425 27.32 33.5425 27.32C33.4145 27.32 33.3078 27.1387 33.2225 26.776C33.1585 26.392 33.1052 25.912 33.0625 25.336C33.0412 24.76 33.0305 24.1627 33.0305 23.544C33.0518 22.9253 33.0838 22.36 33.1265 21.848C33.2118 21.4853 33.2545 21.0907 33.2545 20.664C33.2545 20.216 33.2652 19.864 33.2865 19.608C33.2652 19.2667 33.3292 18.9893 33.4785 18.776C33.6492 18.5627 33.7772 18.424 33.8625 18.36C34.6518 18.0187 35.2278 18.2 35.5905 18.904C35.9532 19.608 36.0812 20.728 35.9745 22.264C35.9318 23.1173 35.9105 23.9387 35.9105 24.728C35.9105 25.496 35.9852 26.1573 36.1345 26.712C36.2838 27.2667 36.5398 27.6613 36.9025 27.896C37.0518 27.9813 37.1052 28.1627 37.0625 28.44C37.0198 28.7173 36.9238 29.016 36.7745 29.336C36.6252 29.6347 36.4545 29.9013 36.2625 30.136C36.0918 30.3493 35.9425 30.4453 35.8145 30.424ZM55.0788 31.192C54.7801 31.1067 54.4814 30.9573 54.1828 30.744C53.8841 30.5307 53.5748 30.2853 53.2548 30.008C52.9988 29.6667 52.8174 29.3573 52.7108 29.08C52.6041 28.7813 52.5401 28.44 52.5188 28.056C52.5188 27.6507 52.5188 27.1387 52.5188 26.52C52.5188 26.264 52.5614 25.9013 52.6468 25.432C52.7534 24.9627 52.8601 24.472 52.9668 23.96C53.0948 23.448 53.2121 23 53.3188 22.616C53.4254 22.2107 53.4894 21.944 53.5108 21.816C53.5748 21.5387 53.4681 21.3787 53.1908 21.336C52.9134 21.2933 52.6041 21.2827 52.2628 21.304C51.9428 21.304 51.7294 21.272 51.6228 21.208C51.5374 21.1867 51.4948 21.08 51.4948 20.888C51.4948 20.6747 51.4948 20.568 51.4948 20.568C51.4948 20.4827 51.4521 20.4293 51.3668 20.408C51.2814 20.3653 51.2068 20.2907 51.1428 20.184C51.1001 20.0987 51.1534 19.9387 51.3028 19.704C51.4521 19.4693 51.6441 19.3307 51.8788 19.288C52.0708 19.2453 52.3588 19.2133 52.7428 19.192C53.1268 19.1493 53.5108 19.0747 53.8948 18.968C54.3001 18.84 54.6094 18.648 54.8228 18.392C55.0148 17.9227 55.2281 17.4213 55.4628 16.888C55.6974 16.3333 55.9214 15.8533 56.1348 15.448C56.3481 15.0213 56.4974 14.7547 56.5828 14.648C56.9454 14.456 57.3188 14.3813 57.7028 14.424C58.0868 14.4453 58.3854 14.6267 58.5988 14.968C58.7054 15.1173 58.7908 15.224 58.8548 15.288C58.9401 15.352 58.9721 15.448 58.9508 15.576C58.9508 15.704 58.8654 15.9387 58.6948 16.28C58.5454 16.6 58.2894 17.1013 57.9268 17.784C57.8201 17.9973 57.7241 18.1893 57.6388 18.36C57.5534 18.5093 57.5108 18.584 57.5108 18.584C57.5961 18.6053 57.7241 18.616 57.8948 18.616C58.0654 18.616 58.2788 18.6053 58.5348 18.584C58.7694 18.5413 59.0254 18.5093 59.3028 18.488C59.5801 18.4453 59.8254 18.4453 60.0388 18.488C60.5294 18.488 60.8921 18.6267 61.1268 18.904C61.3614 19.1813 61.4894 19.5333 61.5108 19.96C61.5534 20.1947 61.4681 20.3973 61.2548 20.568C61.0414 20.7387 60.6468 20.824 60.0708 20.824C59.8788 20.824 59.6014 20.8347 59.2388 20.856C58.8761 20.8773 58.5028 20.8987 58.1188 20.92C57.7348 20.9413 57.4041 20.9733 57.1267 21.016C56.8708 21.0373 56.7428 21.0693 56.7428 21.112C56.6788 21.1547 56.5721 21.3253 56.4228 21.624C56.2948 21.9013 56.1561 22.2427 56.0068 22.648C55.8788 23.0533 55.7614 23.4373 55.6548 23.8C55.5054 24.5253 55.3988 25.2293 55.3348 25.912C55.2708 26.5947 55.2601 27.192 55.3028 27.704C55.3668 28.1947 55.4948 28.5467 55.6868 28.76C55.8788 28.952 56.1668 28.952 56.5508 28.76C56.9561 28.5467 57.3294 28.3013 57.6708 28.024C58.0548 27.704 58.3854 27.608 58.6628 27.736C58.9401 27.8427 59.1108 28.0773 59.1748 28.44C59.2601 28.7813 59.1641 29.1547 58.8868 29.56C58.6308 29.9653 58.2681 30.3067 57.7988 30.584C57.3294 30.8613 56.8494 31.0533 56.3588 31.16C55.8681 31.288 55.4414 31.2987 55.0788 31.192ZM73.0325 30.776C72.6272 30.8827 72.2005 30.9573 71.7525 31C71.3258 31.064 70.9525 30.936 70.6325 30.616C70.4405 30.3173 70.2698 30.0507 70.1205 29.816C69.9712 29.5813 69.8752 29.1653 69.8325 28.568C69.8112 28.1627 69.8325 27.7253 69.8965 27.256C69.9818 26.7653 70.0138 26.4133 69.9925 26.2C70.1632 25.4107 70.2058 24.8453 70.1205 24.504C70.0565 24.1627 69.9712 23.992 69.8645 23.992C69.6298 23.9493 69.2565 24.12 68.7445 24.504C68.2538 24.888 67.6672 25.432 66.9845 26.136C66.3232 26.8187 65.6085 27.5973 64.8405 28.472C64.4352 29.0267 64.1365 29.4427 63.9445 29.72C63.7738 29.976 63.6458 30.104 63.5605 30.104C63.1765 30.104 62.8245 30.04 62.5045 29.912C62.1845 29.784 61.9285 29.6027 61.7365 29.368C61.5445 29.1333 61.4272 28.888 61.3845 28.632C61.3845 28.5467 61.4378 28.3227 61.5445 27.96C61.6512 27.576 61.7792 27.1387 61.9285 26.648C62.0778 26.1573 62.2165 25.6987 62.3445 25.272C62.4938 24.8453 62.6005 24.5467 62.6645 24.376C62.8565 23.8213 63.0805 23.1493 63.3365 22.36C63.6138 21.5493 63.8592 20.8347 64.0725 20.216C64.1578 19.9387 64.3072 19.544 64.5205 19.032C64.7338 18.4987 64.9472 17.9653 65.1605 17.432C65.3738 16.8987 65.5232 16.504 65.6085 16.248C65.6725 16.0773 65.7898 15.7787 65.9605 15.352C66.1312 14.904 66.3125 14.4133 66.5045 13.88C66.7178 13.3467 66.9098 12.856 67.0805 12.408C67.2725 11.9387 67.4005 11.5973 67.4645 11.384C67.4432 11.192 67.4538 11.0213 67.4965 10.872C67.5605 10.7013 67.6245 10.5733 67.6885 10.488C67.7738 10.488 67.8698 10.488 67.9765 10.488C68.0832 10.4667 68.1365 10.456 68.1365 10.456C68.1365 10.4133 68.2752 10.456 68.5525 10.584C68.8512 10.712 69.1392 10.872 69.4165 11.064C69.7152 11.2347 69.8645 11.384 69.8645 11.512C69.9712 11.7893 69.9818 12.152 69.8965 12.6C69.8112 13.0267 69.5872 13.6773 69.2245 14.552C68.9898 14.8933 68.7552 15.4053 68.5205 16.088C68.3072 16.7707 68.0938 17.3467 67.8805 17.816C67.7952 17.9653 67.6672 18.232 67.4965 18.616C67.3472 18.9787 67.1658 19.416 66.9525 19.928C66.7605 20.4187 66.5685 20.9413 66.3765 21.496C66.1845 22.0507 66.0138 22.5947 65.8645 23.128C65.6512 23.64 65.5765 23.9813 65.6405 24.152C65.7045 24.3227 65.9605 24.1307 66.4085 23.576C67.0058 22.936 67.5605 22.36 68.0725 21.848C68.6058 21.336 69.0965 20.9307 69.5445 20.632C70.0138 20.312 70.4298 20.1733 70.7925 20.216C70.9845 20.2587 71.2298 20.3973 71.5285 20.632C71.8485 20.8453 72.1472 21.1013 72.4245 21.4C72.7232 21.6773 72.9152 21.944 73.0005 22.2C73.0858 22.4987 73.1392 22.7867 73.1605 23.064C73.2032 23.3413 73.2138 23.736 73.1925 24.248C73.1712 24.7387 73.1178 25.4747 73.0325 26.456C72.9045 27.1813 72.8192 27.704 72.7765 28.024C72.7338 28.3227 72.7445 28.536 72.8085 28.664C72.8938 28.792 73.0218 28.9307 73.1925 29.08C73.5125 29.336 73.6405 29.6453 73.5765 30.008C73.5125 30.3493 73.3312 30.6053 73.0325 30.776ZM79.557 31.576C78.3837 31.576 77.477 31.2347 76.837 30.552C76.2183 29.8693 75.909 28.824 75.909 27.416C75.909 26.648 76.0477 25.8053 76.325 24.888C76.6237 23.9707 77.0077 23.0747 77.477 22.2C77.9677 21.3253 78.501 20.568 79.077 19.928C79.653 19.2667 80.229 18.808 80.805 18.552C81.0183 18.4453 81.2423 18.3707 81.477 18.328C81.733 18.264 81.9783 18.232 82.213 18.232C82.469 18.232 82.7463 18.2533 83.045 18.296C83.365 18.3173 83.6637 18.3813 83.941 18.488C84.4317 18.6373 84.8583 18.9253 85.221 19.352C85.605 19.7787 85.797 20.3973 85.797 21.208C85.797 21.4213 85.7757 21.656 85.733 21.912C85.6903 22.1467 85.6157 22.3813 85.509 22.616C85.2317 23.32 84.805 23.992 84.229 24.632C83.6743 25.272 83.0877 25.72 82.469 25.976C82.2983 26.0613 82.1277 26.1253 81.957 26.168C81.8077 26.1893 81.6477 26.2 81.477 26.2C81.029 26.2 80.6237 26.136 80.261 26.008C79.9197 25.88 79.5997 25.7093 79.301 25.496L79.045 25.272L78.885 25.592C78.7357 25.9973 78.629 26.3387 78.565 26.616C78.5223 26.8933 78.501 27.096 78.501 27.224C78.501 27.48 78.5117 27.7467 78.533 28.024C78.5543 28.28 78.6183 28.4933 78.725 28.664C78.8103 28.7707 78.917 28.856 79.045 28.92C79.1943 28.984 79.3757 29.016 79.589 29.016C79.717 29.016 79.8343 29.016 79.941 29.016C80.069 28.9947 80.1757 28.9733 80.261 28.952C80.645 28.8667 80.9543 28.728 81.189 28.536C81.445 28.3227 81.7117 28.1413 81.989 27.992L82.117 27.928L82.085 27.832C82.4477 27.64 82.693 27.5227 82.821 27.48C82.949 27.416 83.045 27.3627 83.109 27.32C83.1943 27.2347 83.2903 27.192 83.397 27.192C83.6957 27.1493 83.9837 27.2347 84.261 27.448C84.5597 27.64 84.709 27.8853 84.709 28.184C84.709 28.312 84.613 28.5147 84.421 28.792C84.2503 29.0693 84.0263 29.3467 83.749 29.624C83.493 29.88 83.2263 30.0827 82.949 30.232C82.885 30.2533 82.821 30.2853 82.757 30.328C82.693 30.3493 82.629 30.3813 82.565 30.424H82.597C82.405 30.68 82.213 30.808 82.021 30.808H81.765C81.6797 30.9573 81.4023 31.1173 80.933 31.288C80.4637 31.48 80.005 31.576 79.557 31.576ZM81.221 23.864C81.413 23.864 81.5837 23.832 81.733 23.768C81.9037 23.704 82.0637 23.6293 82.213 23.544C82.725 23.1813 83.0557 22.712 83.205 22.136C83.3543 21.56 83.301 21.1227 83.045 20.824C83.0023 20.76 82.949 20.7173 82.885 20.696C82.821 20.6533 82.7463 20.632 82.661 20.632C82.4263 20.632 82.1597 20.7067 81.861 20.856C81.5837 21.0053 81.3063 21.2187 81.029 21.496C80.7517 21.7733 80.4957 22.104 80.261 22.488L79.845 23.16C79.8877 23.1387 79.9197 23.128 79.941 23.128C79.9837 23.1067 80.0157 23.096 80.037 23.096C80.229 23.096 80.357 23.16 80.421 23.288C80.485 23.416 80.5597 23.544 80.645 23.672C80.7517 23.8 80.9437 23.864 81.221 23.864ZM87.6205 30.136C87.4285 29.9867 87.2152 29.7947 86.9805 29.56C86.7672 29.3253 86.6925 28.9947 86.7565 28.568C86.8205 27.9707 86.9058 27.448 87.0125 27C87.1192 26.5307 87.2472 25.9973 87.3965 25.4C87.4392 25.144 87.5458 24.7067 87.7165 24.088C87.9085 23.4693 88.1325 22.7973 88.3885 22.072C88.6445 21.3467 88.9112 20.664 89.1885 20.024C89.4658 19.3627 89.7112 18.872 89.9245 18.552C90.1592 18.3387 90.5005 18.232 90.9485 18.232C91.4178 18.232 91.7378 18.3173 91.9085 18.488C92.1432 18.68 92.2178 19.0213 92.1325 19.512C92.0472 19.9813 91.7485 20.7173 91.2365 21.72C91.1298 21.976 90.9912 22.2533 90.8205 22.552C90.6712 22.8293 90.5645 23.064 90.5005 23.256C90.4365 23.4267 90.4578 23.5013 90.5645 23.48C90.6925 23.2453 90.9272 22.9787 91.2685 22.68C91.6098 22.36 91.9725 22.0507 92.3565 21.752C92.7405 21.4533 93.1032 21.1867 93.4445 20.952C93.7858 20.7173 94.0205 20.568 94.1485 20.504C94.3192 20.3973 94.5112 20.312 94.7245 20.248C94.9592 20.1627 95.1192 20.0987 95.2045 20.056C95.6952 19.8213 96.2285 19.736 96.8045 19.8C97.4018 19.8427 97.7645 20.024 97.8925 20.344C97.9138 20.5147 97.9778 20.6427 98.0845 20.728C98.2125 20.8133 98.2765 20.856 98.2765 20.856C98.3618 20.856 98.4045 20.888 98.4045 20.952C98.4258 21.016 98.4365 21.048 98.4365 21.048C98.4365 21.1973 98.2872 21.4107 97.9885 21.688C97.7112 21.9653 97.4018 22.1147 97.0605 22.136C96.7832 22.1573 96.5378 22.2107 96.3245 22.296C96.1112 22.3813 95.8552 22.488 95.5565 22.616C94.7458 23.0853 94.0098 23.5013 93.3485 23.864C92.7085 24.2267 92.0472 24.7813 91.3645 25.528C91.2152 25.6987 91.0552 25.8587 90.8845 26.008C90.7138 26.1573 90.5432 26.3707 90.3725 26.648C90.2658 26.7547 90.1592 26.9893 90.0525 27.352C89.9458 27.7147 89.8498 28.0667 89.7645 28.408C89.7005 28.728 89.6685 28.92 89.6685 28.984C89.6685 28.984 89.6365 29.0907 89.5725 29.304C89.5085 29.496 89.4018 29.688 89.2525 29.88C88.9965 30.2213 88.7405 30.4347 88.4845 30.52C88.2498 30.6053 87.9618 30.4773 87.6205 30.136ZM100.688 30.712C99.8558 30.3707 99.2798 29.816 98.9598 29.048C98.6398 28.28 98.5544 27.256 98.7038 25.976C98.7464 25.3147 98.7251 24.8773 98.6398 24.664C98.5544 24.4293 98.3944 24.2053 98.1598 23.992C98.0958 23.9067 97.9464 23.768 97.7118 23.576C97.4771 23.3627 97.3704 23.2027 97.3918 23.096C97.3704 22.9467 97.4024 22.7653 97.4878 22.552C97.5731 22.3173 97.6478 22.1893 97.7118 22.168C97.8611 22.104 98.0104 22.0293 98.1598 21.944C98.3304 21.8587 98.4584 21.8373 98.5438 21.88C98.6291 21.88 98.7571 21.9333 98.9278 22.04C99.1198 22.1467 99.2158 22.2427 99.2158 22.328C99.3011 22.4773 99.4291 22.4133 99.5998 22.136C99.7918 21.8587 99.9944 21.5067 100.208 21.08C100.421 20.7387 100.688 20.4187 101.008 20.12C101.328 19.8213 101.648 19.5547 101.968 19.32C102.309 19.064 102.597 18.872 102.832 18.744C102.938 18.7013 103.141 18.6373 103.44 18.552C103.76 18.4667 104.09 18.4027 104.432 18.36C104.773 18.296 105.029 18.2747 105.2 18.296C105.584 18.3173 105.989 18.4773 106.416 18.776C106.842 19.0747 107.173 19.352 107.408 19.608C107.685 19.8 107.866 20.0987 107.952 20.504C108.058 20.888 108.101 21.2933 108.08 21.72C108.058 22.1467 107.973 22.5093 107.824 22.808C107.76 23.0213 107.536 23.32 107.152 23.704C106.768 24.088 106.341 24.4613 105.872 24.824C105.424 25.1653 105.04 25.4 104.72 25.528C104.442 25.592 104.112 25.6453 103.728 25.688C103.344 25.7093 102.981 25.7093 102.64 25.688C102.32 25.6453 102.096 25.592 101.968 25.528C101.818 25.4427 101.69 25.4747 101.584 25.624C101.498 25.752 101.424 26.1147 101.36 26.712C101.338 26.9467 101.338 27.1493 101.36 27.32C101.402 27.4907 101.445 27.6187 101.488 27.704C101.637 27.96 101.786 28.152 101.936 28.28C102.085 28.3867 102.362 28.4187 102.768 28.376C103.173 28.3333 103.578 28.088 103.984 27.64C104.41 27.1707 104.794 26.7973 105.136 26.52C105.221 26.3707 105.402 26.2747 105.68 26.232C105.978 26.168 106.33 26.1893 106.736 26.296C106.97 26.4453 107.077 26.68 107.056 27C107.056 27.32 106.885 27.7893 106.544 28.408C106.48 28.5573 106.298 28.7813 106 29.08C105.722 29.3573 105.413 29.6453 105.072 29.944C104.752 30.2213 104.485 30.424 104.272 30.552C103.632 30.8933 103.002 31.0533 102.384 31.032C101.765 31.0107 101.2 30.904 100.688 30.712ZM103.056 23.512C103.376 23.4267 103.642 23.3413 103.856 23.256C104.09 23.1707 104.314 23.032 104.528 22.84C104.741 22.648 104.986 22.36 105.264 21.976C105.349 21.7413 105.392 21.5387 105.392 21.368C105.413 21.1973 105.402 21.0907 105.36 21.048C105.189 20.8773 104.997 20.824 104.784 20.888C104.592 20.9307 104.378 21.0373 104.144 21.208C103.994 21.272 103.781 21.4107 103.504 21.624C103.248 21.816 102.992 22.04 102.736 22.296C102.501 22.5307 102.309 22.7547 102.16 22.968C102.032 23.16 102.01 23.2773 102.096 23.32C102.053 23.4053 102.17 23.4587 102.448 23.48C102.746 23.5013 102.949 23.512 103.056 23.512ZM112.399 25.848C111.802 25.9547 111.333 25.7093 110.991 25.112C110.65 24.4933 110.671 23.416 111.055 21.88C111.183 21.624 111.29 21.3787 111.375 21.144C111.461 20.888 111.503 20.6853 111.503 20.536C111.589 20.2587 111.695 19.9387 111.823 19.576C111.973 19.192 112.122 18.84 112.271 18.52C112.421 18.1787 112.527 17.9547 112.591 17.848C112.677 17.848 112.762 17.7733 112.847 17.624C112.954 17.4747 113.007 17.3253 113.007 17.176C113.007 17.0053 113.039 16.8133 113.103 16.6C113.189 16.3867 113.274 16.2373 113.359 16.152C113.359 16.0453 113.402 15.928 113.487 15.8C113.573 15.672 113.615 15.5653 113.615 15.48C113.615 15.3947 113.637 15.32 113.679 15.256C113.743 15.192 113.775 15.1173 113.775 15.032C113.967 14.6907 114.213 14.1893 114.511 13.528C114.831 12.8453 115.141 12.1307 115.439 11.384C115.759 10.6373 116.026 9.976 116.239 9.4C116.453 8.824 116.559 8.472 116.559 8.344C116.602 8.17333 116.666 8.01333 116.751 7.864C116.837 7.71467 116.965 7.66133 117.135 7.704C117.221 7.64 117.349 7.608 117.519 7.608C117.69 7.58667 117.818 7.576 117.903 7.576C117.903 7.576 117.999 7.61867 118.191 7.704C118.383 7.78933 118.554 7.91733 118.703 8.088C118.874 8.23733 118.97 8.44 118.991 8.696C119.013 8.952 119.023 9.208 119.023 9.464C119.002 9.86933 118.853 10.328 118.575 10.84C118.298 11.352 117.989 11.9173 117.647 12.536C117.434 12.9413 117.221 13.3253 117.007 13.688C116.815 14.0507 116.719 14.2747 116.719 14.36C116.719 14.4453 116.677 14.5733 116.591 14.744C116.506 14.9147 116.41 15.128 116.303 15.384C116.175 15.5973 116.047 15.8533 115.919 16.152C115.813 16.4507 115.717 16.728 115.631 16.984C115.546 17.2187 115.503 17.368 115.503 17.432C115.482 17.5173 115.45 17.6027 115.407 17.688C115.386 17.7733 115.333 17.8587 115.247 17.944C115.162 17.944 115.109 18.008 115.087 18.136C115.087 18.2427 115.087 18.296 115.087 18.296C115.087 18.3813 115.034 18.584 114.927 18.904C114.842 19.2027 114.693 19.5653 114.479 19.992C114.074 21.1227 113.786 22.0293 113.615 22.712C113.445 23.3733 113.338 23.9387 113.295 24.408C113.253 24.92 113.135 25.272 112.943 25.464C112.751 25.6347 112.57 25.7627 112.399 25.848ZM110.703 30.808C110.255 30.9787 109.882 31.0533 109.583 31.032C109.285 31.032 108.954 30.8933 108.591 30.616C108.165 30.1893 108.015 29.7627 108.143 29.336C108.293 28.888 108.677 28.4613 109.295 28.056C109.722 27.7787 110.031 27.64 110.223 27.64C110.437 27.6187 110.746 27.6933 111.151 27.864C111.877 28.312 112.197 28.8133 112.111 29.368C112.026 29.9013 111.557 30.3813 110.703 30.808ZM126.292 32.312C126.143 32.0773 125.887 31.928 125.524 31.864C125.161 31.8 124.607 31.7893 123.86 31.832C123.561 31.8747 123.252 31.8533 122.932 31.768C122.612 31.6827 122.356 31.5547 122.164 31.384C121.972 31.2133 121.897 31.0427 121.94 30.872C121.961 30.616 122.26 30.3387 122.836 30.04C123.412 29.7413 124.159 29.5813 125.076 29.56L126.42 29.528L126.74 28.888C126.825 28.6533 126.889 28.3973 126.932 28.12C126.996 27.8427 127.103 27.4587 127.252 26.968C127.337 26.6693 127.465 26.2533 127.636 25.72C127.807 25.1867 127.988 24.6213 128.18 24.024C128.372 23.4053 128.543 22.8507 128.692 22.36C128.841 21.8693 128.937 21.528 128.98 21.336C129.065 21.144 129.183 20.824 129.332 20.376C129.481 19.9067 129.62 19.4373 129.748 18.968C129.897 18.4773 129.993 18.1253 130.036 17.912C130.591 16.2267 130.953 15.0533 131.124 14.392C131.295 13.7093 131.337 13.3573 131.252 13.336C131.167 13.336 130.964 13.3467 130.644 13.368C130.324 13.3893 129.972 13.4213 129.588 13.464C129.204 13.4853 128.863 13.5173 128.564 13.56C128.265 13.6027 128.084 13.6453 128.02 13.688C127.913 13.8373 127.732 13.816 127.476 13.624C127.22 13.4107 127.06 13.1973 126.996 12.984C126.975 12.792 126.975 12.6107 126.996 12.44C127.017 12.2693 127.081 12.152 127.188 12.088C127.337 11.96 127.647 11.8213 128.116 11.672C128.585 11.5013 129.108 11.352 129.684 11.224C130.281 11.096 130.825 11 131.316 10.936C131.679 10.8933 132.041 10.8187 132.404 10.712C132.767 10.584 133.055 10.4347 133.268 10.264C133.46 10.2 133.641 10.1467 133.812 10.104C134.004 10.0613 134.196 10.0507 134.388 10.072C134.559 10.1787 134.847 10.232 135.252 10.232C135.679 10.232 136.127 10.2213 136.596 10.2C137.791 10.0933 138.623 10.136 139.092 10.328C139.583 10.4987 139.903 10.7333 140.052 11.032C140.159 11.4373 140.137 11.7787 139.988 12.056C139.839 12.312 139.583 12.4293 139.22 12.408C139.028 12.4507 138.761 12.4933 138.42 12.536C138.079 12.5573 137.631 12.5787 137.076 12.6C135.668 12.728 134.911 12.8773 134.804 13.048C134.719 13.1333 134.644 13.2187 134.58 13.304C134.537 13.3893 134.473 13.4853 134.388 13.592C134.409 13.6773 134.356 13.9333 134.228 14.36C134.121 14.7653 133.983 15.2027 133.812 15.672C133.727 15.9493 133.599 16.344 133.428 16.856C133.257 17.368 133.076 17.9013 132.884 18.456C132.713 18.9893 132.553 19.48 132.404 19.928C132.255 20.3547 132.148 20.6427 132.084 20.792C131.999 20.984 131.924 21.1973 131.86 21.432C131.817 21.6453 131.785 21.8053 131.764 21.912C131.465 22.9573 131.209 23.832 130.996 24.536C130.804 25.24 130.633 25.8587 130.484 26.392C130.335 26.904 130.196 27.4053 130.068 27.896C129.94 28.3653 129.791 28.8987 129.62 29.496C129.62 29.496 129.801 29.4853 130.164 29.464C130.527 29.4213 130.985 29.3787 131.54 29.336C132.543 29.2293 133.225 29.1653 133.588 29.144C133.951 29.1227 134.164 29.1547 134.228 29.24C134.292 29.304 134.356 29.432 134.42 29.624C134.847 30.2 134.815 30.68 134.324 31.064C133.855 31.448 133.023 31.6293 131.828 31.608C130.719 31.6507 129.897 31.6827 129.364 31.704C128.852 31.7467 128.521 31.8 128.372 31.864C128.223 31.928 128.148 32.0347 128.148 32.184C128.169 32.5253 127.956 32.728 127.508 32.792C127.081 32.8773 126.676 32.7173 126.292 32.312ZM140.57 17.112C140.356 17.1333 140.09 17.1333 139.77 17.112C139.471 17.0907 139.29 16.888 139.226 16.504C139.204 16.3547 139.226 16.216 139.29 16.088C139.354 15.96 139.439 15.8213 139.546 15.672C139.802 15.2453 140.09 14.776 140.41 14.264C140.751 13.752 140.975 13.336 141.082 13.016C141.082 12.9307 141.092 12.856 141.114 12.792C140.751 12.856 140.378 12.728 139.994 12.408C139.588 12.024 139.471 11.5227 139.642 10.904C139.834 10.264 140.207 9.752 140.762 9.368C141.146 9.13333 141.508 9.00533 141.85 8.984C142.191 8.96267 142.554 9.03733 142.938 9.208C143.3 9.42133 143.599 9.752 143.834 10.2C144.068 10.6267 144.132 10.9787 144.026 11.256C143.962 11.7467 143.844 12.2053 143.674 12.632C143.524 13.0587 143.386 13.4747 143.258 13.88C143.13 14.3493 142.863 14.8507 142.458 15.384C142.074 15.896 141.7 16.3653 141.338 16.792C141.359 16.8773 141.295 16.9307 141.146 16.952C140.996 16.9733 140.804 17.0267 140.57 17.112ZM155.456 30.232C155.306 30.1893 155.072 30.0507 154.752 29.816C154.432 29.5813 154.144 29.2293 153.888 28.76C153.653 28.2907 153.546 27.6827 153.568 26.936C153.589 26.296 153.632 25.848 153.696 25.592C153.781 25.3147 153.749 25.1653 153.6 25.144C153.493 25.1227 153.28 25.2187 152.96 25.432C152.64 25.6453 152.224 25.9867 151.712 26.456C151.2 26.9253 150.581 27.544 149.856 28.312C149.6 28.5253 149.312 28.792 148.992 29.112C148.693 29.4107 148.384 29.6347 148.064 29.784C147.765 29.9333 147.498 29.9013 147.264 29.688L146.944 29.4C146.794 29.272 146.666 29.1013 146.56 28.888C146.453 28.6747 146.421 28.4933 146.464 28.344L147.36 25.848C147.616 25.2933 147.786 24.888 147.872 24.632C147.978 24.376 148.021 24.216 148 24.152C148 24.088 147.946 24.0667 147.84 24.088C147.712 24.1093 147.53 24.2267 147.296 24.44C147.061 24.632 146.901 24.792 146.816 24.92C146.73 24.92 146.613 25.0053 146.464 25.176C146.336 25.3467 146.208 25.496 146.08 25.624C145.952 25.752 145.728 25.9973 145.408 26.36C145.088 26.7013 144.746 27.064 144.384 27.448C144.106 27.704 143.786 28.0453 143.424 28.472C143.061 28.8987 142.741 29.2827 142.464 29.624C142.186 29.9653 142.016 30.136 141.952 30.136C141.568 30.1147 141.216 29.9867 140.896 29.752C140.597 29.5173 140.394 29.2293 140.288 28.888C140.16 28.6533 140.149 28.2267 140.256 27.608C140.362 26.968 140.565 25.9547 140.864 24.568C140.949 24.248 141.024 23.9707 141.088 23.736C141.173 23.5013 141.258 23.2667 141.344 23.032C141.429 22.7973 141.525 22.5307 141.632 22.232C141.76 21.9333 141.92 21.5707 142.112 21.144C142.218 20.8453 142.261 20.568 142.24 20.312C142.218 20.0347 142.197 19.8107 142.176 19.64C142.176 19.32 142.272 19.064 142.464 18.872C142.677 18.68 142.912 18.552 143.168 18.488C143.424 18.4027 143.626 18.3813 143.776 18.424C144.373 18.488 144.778 18.7013 144.992 19.064C145.205 19.4267 145.322 19.7787 145.344 20.12C145.365 20.44 145.322 20.728 145.216 20.984C145.109 21.24 145.024 21.4533 144.96 21.624L144.608 22.488C144.394 22.9787 144.234 23.3413 144.128 23.576C144.042 23.7893 143.989 23.9387 143.968 24.024C143.968 24.088 143.968 24.152 143.968 24.216C143.989 24.28 144.085 24.248 144.256 24.12C144.426 23.992 144.629 23.8213 144.864 23.608C145.12 23.3733 145.354 23.1707 145.568 23C145.952 22.68 146.357 22.36 146.784 22.04C147.232 21.6987 147.669 21.4 148.096 21.144C148.522 20.888 148.874 20.7173 149.152 20.632C149.514 20.696 149.845 20.8773 150.144 21.176C150.464 21.4747 150.666 21.7307 150.752 21.944C150.858 22.264 150.869 22.552 150.784 22.808C150.72 23.064 150.666 23.2987 150.624 23.512C150.602 23.5973 150.56 23.7573 150.496 23.992C150.432 24.2267 150.368 24.4507 150.304 24.664C150.24 24.856 150.208 24.952 150.208 24.952C150.208 24.952 150.272 24.888 150.4 24.76C150.528 24.632 150.698 24.4827 150.912 24.312C151.125 24.12 151.338 23.9493 151.552 23.8C152.618 22.9893 153.461 22.4773 154.08 22.264C154.72 22.0293 155.264 22.2107 155.712 22.808C155.968 23.0427 156.128 23.3627 156.192 23.768C156.277 24.1733 156.32 24.7173 156.32 25.4C156.341 25.6773 156.362 25.9867 156.384 26.328C156.426 26.6693 156.469 26.968 156.512 27.224C156.576 27.48 156.629 27.64 156.672 27.704C156.736 27.7893 156.853 27.8747 157.024 27.96C157.194 28.024 157.354 28.0773 157.504 28.12C157.802 28.2693 157.962 28.5467 157.984 28.952C158.026 29.336 157.877 29.6347 157.536 29.848C157.216 30.04 156.874 30.1573 156.512 30.2C156.17 30.2427 155.818 30.2533 155.456 30.232Z" fill="#444444"/>
<path d="M14.784 48.192C17.8453 48.192 20.9253 48.2293 24.024 48.304C27.1227 48.3413 29.9413 48.528 32.48 48.864L31.472 54.968H17.808C16.6133 54.968 15.736 55.192 15.176 55.64C14.616 56.0507 14.2613 56.8347 14.112 57.992L10.024 87H1.456L5.768 55.92C6.14133 53.4933 7.13067 51.608 8.736 50.264C10.3413 48.8827 12.3573 48.192 14.784 48.192ZM5.544 64.656H28L27.216 70.592H4.704L5.544 64.656ZM45.5144 48.192C47.6424 48.192 49.7518 48.2107 51.8424 48.248C53.9704 48.248 56.0424 48.304 58.0584 48.416C60.0744 48.4907 61.9411 48.6213 63.6584 48.808L62.6504 54.968H48.2024C47.1198 54.968 46.3171 55.2107 45.7944 55.696C45.2718 56.144 44.9358 56.9093 44.7864 57.992L42.0984 77.48C41.9491 78.4507 42.0798 79.1787 42.4904 79.664C42.9011 80.1493 43.6291 80.392 44.6744 80.392H58.9544L58.7864 86.608C57.0691 86.832 55.2211 86.9627 53.2424 87C51.3011 87.0747 49.3224 87.112 47.3064 87.112C45.3278 87.1493 43.3864 87.168 41.4824 87.168C38.4958 87.168 36.3118 86.328 34.9304 84.648C33.5491 82.9307 33.0451 80.7093 33.4184 77.984L36.4984 55.808C36.8344 53.456 37.7678 51.608 39.2984 50.264C40.8291 48.8827 42.9011 48.192 45.5144 48.192ZM36.4424 63.928H59.2344L58.5064 69.92H35.4904L36.4424 63.928ZM78.456 48.36L74.312 77.144C74.2 78.1147 74.312 78.8613 74.648 79.384C75.0213 79.8693 75.7493 80.112 76.832 80.112H90.216L90.048 86.608C87.5467 86.8693 84.84 87.0187 81.928 87.056C79.016 87.1307 76.1413 87.168 73.304 87.168C71.5867 87.168 70.0933 86.8133 68.824 86.104C67.592 85.3947 66.6773 84.4053 66.08 83.136C65.52 81.8667 65.3707 80.3547 65.632 78.6L69.832 48.36H78.456ZM108.318 48.36L102.886 87H94.318L99.75 48.36H108.318ZM130.438 47.8C133.91 47.8 136.654 48.2107 138.67 49.032C140.686 49.816 142.048 51.16 142.758 53.064C143.504 54.9307 143.635 57.5067 143.15 60.792C142.702 64.0773 141.936 66.616 140.854 68.408C139.808 70.1627 138.315 71.376 136.374 72.048C134.432 72.72 131.875 73.056 128.702 73.056C127.022 73.056 125.379 72.9813 123.774 72.832C122.168 72.6827 120.656 72.496 119.238 72.272C117.856 72.0107 116.68 71.7493 115.71 71.488C114.739 71.2267 114.067 71.0027 113.694 70.816L114.03 66.616C116.27 66.616 118.603 66.616 121.03 66.616C123.456 66.616 125.808 66.616 128.086 66.616C129.579 66.616 130.755 66.448 131.614 66.112C132.472 65.776 133.144 65.1413 133.63 64.208C134.115 63.2747 134.47 61.912 134.694 60.12C134.918 58.5893 134.918 57.3947 134.694 56.536C134.507 55.6773 134.04 55.08 133.294 54.744C132.584 54.408 131.558 54.24 130.214 54.24C126.742 54.24 123.774 54.2773 121.31 54.352C118.846 54.3893 117.184 54.4453 116.326 54.52L116.102 48.36C117.632 48.1733 119.07 48.0427 120.414 47.968C121.758 47.8933 123.214 47.856 124.782 47.856C126.35 47.8187 128.235 47.8 130.438 47.8ZM124.614 48.36L119.182 87H110.67L116.102 48.36H124.614ZM158.061 48.192C160.189 48.192 162.299 48.2107 164.389 48.248C166.517 48.248 168.589 48.304 170.605 48.416C172.621 48.4907 174.488 48.6213 176.205 48.808L175.197 54.968H160.749C159.667 54.968 158.864 55.2107 158.341 55.696C157.819 56.144 157.483 56.9093 157.333 57.992L154.645 77.48C154.496 78.4507 154.627 79.1787 155.037 79.664C155.448 80.1493 156.176 80.392 157.221 80.392H171.501L171.333 86.608C169.616 86.832 167.768 86.9627 165.789 87C163.848 87.0747 161.869 87.112 159.853 87.112C157.875 87.1493 155.933 87.168 154.029 87.168C151.043 87.168 148.859 86.328 147.477 84.648C146.096 82.9307 145.592 80.7093 145.965 77.984L149.045 55.808C149.381 53.456 150.315 51.608 151.845 50.264C153.376 48.8827 155.448 48.192 158.061 48.192ZM148.989 63.928H171.781L171.053 69.92H148.037L148.989 63.928ZM211.631 48.36C212.34 48.36 212.956 48.6027 213.479 49.088C214.002 49.536 214.3 50.096 214.375 50.768L220.479 87H211.911L208.159 58.552C208.084 57.88 208.028 57.2267 207.991 56.592C207.954 55.9573 207.935 55.3413 207.935 54.744H206.311C206.124 55.2667 205.919 55.864 205.695 56.536C205.508 57.208 205.284 57.8613 205.023 58.496L193.095 87H184.135L200.431 50.488C200.692 49.7787 201.084 49.256 201.607 48.92C202.167 48.5467 202.802 48.36 203.511 48.36H211.631ZM214.599 70.312L213.815 76.92H193.879L194.663 70.312H214.599ZM244.134 47.8C247.27 47.8 249.884 48.1733 251.974 48.92C254.065 49.6293 255.558 50.8427 256.454 52.56C257.388 54.24 257.649 56.592 257.238 59.616C257.014 61.3333 256.585 62.8453 255.95 64.152C255.353 65.4587 254.457 66.5227 253.262 67.344C252.068 68.128 250.5 68.632 248.558 68.856L248.502 69.192C249.174 69.304 249.828 69.584 250.462 70.032C251.097 70.48 251.657 71.1147 252.142 71.936C252.628 72.72 252.945 73.784 253.094 75.128L255.054 87H246.262L244.582 75.072C244.433 73.8027 244.097 72.9627 243.574 72.552C243.089 72.104 242.342 71.88 241.334 71.88C238.684 71.8427 236.5 71.824 234.782 71.824C233.065 71.824 231.628 71.8053 230.47 71.768C229.313 71.7307 228.249 71.6933 227.278 71.656L228.062 65.44H241.95C243.444 65.44 244.638 65.272 245.534 64.936C246.43 64.6 247.121 64.0027 247.606 63.144C248.092 62.248 248.446 61.0347 248.67 59.504C248.894 58.16 248.894 57.1147 248.67 56.368C248.446 55.584 247.961 55.0427 247.214 54.744C246.468 54.408 245.404 54.24 244.022 54.24C240.401 54.24 237.358 54.2773 234.894 54.352C232.468 54.3893 230.825 54.4267 229.966 54.464L229.742 48.36C231.273 48.1733 232.729 48.0427 234.11 47.968C235.492 47.8933 236.966 47.856 238.534 47.856C240.14 47.8187 242.006 47.8 244.134 47.8ZM238.086 48.36L232.654 87H224.31L229.742 48.36H238.086ZM273.397 48.192C275.525 48.192 277.635 48.2107 279.725 48.248C281.853 48.248 283.925 48.304 285.941 48.416C287.957 48.4907 289.824 48.6213 291.541 48.808L290.533 54.968H276.085C275.003 54.968 274.2 55.2107 273.677 55.696C273.155 56.144 272.819 56.9093 272.669 57.992L269.981 77.48C269.832 78.4507 269.963 79.1787 270.373 79.664C270.784 80.1493 271.512 80.392 272.557 80.392H286.837L286.669 86.608C284.952 86.832 283.104 86.9627 281.125 87C279.184 87.0747 277.205 87.112 275.189 87.112C273.211 87.1493 271.269 87.168 269.365 87.168C266.379 87.168 264.195 86.328 262.813 84.648C261.432 82.9307 260.928 80.7093 261.301 77.984L264.381 55.808C264.717 53.456 265.651 51.608 267.181 50.264C268.712 48.8827 270.784 48.192 273.397 48.192ZM264.325 63.928H287.117L286.389 69.92H263.373L264.325 63.928ZM330.307 48.36L325.267 84.088C325.117 85.096 324.8 85.8427 324.315 86.328C323.829 86.776 323.083 87 322.075 87H317.819C316.885 87 316.195 86.7573 315.747 86.272C315.336 85.7867 314.963 85.1147 314.627 84.256L306.507 63.984C306.133 63.1627 305.797 62.248 305.499 61.24C305.237 60.232 304.995 59.2427 304.771 58.272H304.099C304.099 59.28 304.061 60.3067 303.987 61.352C303.949 62.36 303.856 63.3867 303.707 64.432L300.515 87H292.451L297.435 51.272C297.584 50.264 297.92 49.536 298.443 49.088C298.965 48.6027 299.731 48.36 300.739 48.36H304.883C305.816 48.36 306.488 48.6213 306.899 49.144C307.309 49.6293 307.701 50.2827 308.075 51.104L315.971 70.704C316.344 71.5627 316.699 72.5147 317.035 73.56C317.408 74.568 317.744 75.6507 318.043 76.808H318.827C318.789 75.688 318.789 74.6427 318.827 73.672C318.901 72.7013 319.013 71.712 319.163 70.704L322.243 48.36H330.307ZM352.247 47.8C356.317 47.8 359.546 48.416 361.935 49.648C364.362 50.8427 365.986 52.9147 366.807 55.864C367.629 58.776 367.666 62.8267 366.919 68.016C366.359 72.0107 365.613 75.296 364.679 77.872C363.746 80.4107 362.551 82.3893 361.095 83.808C359.639 85.1893 357.81 86.16 355.607 86.72C353.405 87.28 350.773 87.56 347.711 87.56C345.023 87.56 342.41 87.504 339.871 87.392C337.333 87.28 334.906 87.1493 332.591 87L336.791 80.672C338.173 80.7467 339.871 80.8213 341.887 80.896C343.903 80.9333 345.807 80.952 347.599 80.952C349.167 80.952 350.511 80.784 351.631 80.448C352.789 80.0747 353.759 79.4027 354.543 78.432C355.365 77.4613 356.037 76.0987 356.559 74.344C357.119 72.552 357.586 70.2187 357.959 67.344C358.333 64.6933 358.519 62.528 358.519 60.848C358.519 59.1307 358.295 57.8053 357.847 56.872C357.437 55.9387 356.746 55.2853 355.775 54.912C354.805 54.5387 353.535 54.352 351.967 54.352C350.81 54.352 349.597 54.3707 348.327 54.408C347.058 54.408 345.807 54.408 344.575 54.408C343.381 54.408 342.279 54.408 341.271 54.408L338.023 48.36C339.367 48.248 340.842 48.1547 342.447 48.08C344.053 47.968 345.695 47.8933 347.375 47.856C349.055 47.8187 350.679 47.8 352.247 47.8ZM346.591 48.36L341.159 87H332.591L338.023 48.36H346.591Z" fill="#1D6BC5"/>
</svg>
